PathFileType	4	(X/Y/Z)	OpenSim_Sub02_CSStiffKnee_Gyro.trc
DataRate	CameraRate	NumFrames	NumMarkers	Units	OrigDataRate	OrigDataStartFrame	OrigNumFrames
100	100	17	8	m	100	862	6891
Frame#	Time	torso_imu_offset_imu	pelvis_imu_offset_imu	tibia_r_imu_offset_imu	femur_r_imu_offset_imu	tibia_l_imu_offset_imu	femur_l_imu_offset_imu	toes_r_imu_offset_imu	toes_l_imu_offset_imu
				X1	Y1	Z1	X2	Y2	Z2	X3	Y3	Z3	X4	Y4	Z4	X5	Y5	Z5	X6	Y6	Z6	X7	Y7	Z7	X8		Y8	Z8	

862	8.61000000	-0.25979647	0.07500736	-0.13422747	-0.49206100	-0.16745337	0.11688357	0.03208733	0.17823630	-1.54851358	0.35438743	0.16970730	-0.04141950	-0.89558923	0.43909610	0.81880325	-0.70530590	-0.28932521	-0.19937314	-0.16489108	-1.38453105	0.03913240	-1.22768506	1.25624270	0.47960282
863	8.62000000	-0.27982257	0.10536620	-0.13892584	-0.52105303	-0.19091476	0.07851280	0.02413201	0.16964502	-1.67251079	0.54378683	0.26698567	0.04614224	-1.15375029	0.89432486	2.17944916	-0.77990307	-0.31062749	-0.29686271	-0.15723759	-1.73242505	0.02026933	-0.22543163	1.95480769	-0.47122299
864	8.63000000	-0.26386323	0.08540293	-0.14904577	-0.52972091	-0.27678755	0.05135084	-0.01194744	0.13986786	-1.78982203	0.68538533	0.33990839	0.16354395	-2.75727205	0.25545131	3.38680431	-0.83436510	-0.23850544	-0.18834923	-0.14677698	-2.11550061	-0.04374234	-0.05036049	-0.56024617	0.11723472
865	8.64000000	-0.28457017	0.07248833	-0.15394646	-0.58395015	-0.31811568	0.00540113	-0.09512890	0.10355766	-1.87551959	0.76063807	0.43184686	0.30875969	-1.33390664	-0.16146557	2.45919996	-0.87823294	-0.21878762	0.02538864	-0.02940672	-2.52265877	-0.10152297	0.25292612	0.17115455	0.31920194
866	8.65000000	-0.31414440	0.07579475	-0.14739633	-0.57278741	-0.33962280	-0.06368022	-0.13380394	0.08544375	-2.01086643	0.76481013	0.61172498	0.48048376	1.53326665	0.57066604	0.02693281	-0.84009222	-0.18540204	0.32943421	-0.10463781	-3.01532413	-0.12435097	-0.27844848	-0.09788618	0.01576604
867	8.66000000	-0.34184397	0.06879758	-0.16467175	-0.51067920	-0.36786654	-0.14367102	-0.30209277	0.01435787	-2.20775836	0.63565617	0.80835726	0.72099790	2.21233586	0.20794479	-0.47023617	-0.55603357	-0.20368667	0.81491562	-0.23281137	-3.64080919	-0.15001292	-0.00888381	-0.20994633	0.27797814
868	8.67000000	-0.38181283	0.06121499	-0.20537001	-0.50351964	-0.36670833	-0.19243817	-0.54522316	-0.03276846	-2.41181056	0.39038107	0.91764192	0.99062142	1.91159683	-0.03972945	0.49653614	-0.10417619	-0.34048093	1.11291726	-0.08685881	-4.28424576	-0.17250738	-0.12246148	-0.18993942	0.29228844
869	8.68000000	-0.39368948	0.02543020	-0.25345062	-0.50542267	-0.34388808	-0.19982246	-0.67862145	0.08994659	-2.56379492	0.10941824	0.99689471	1.26149688	1.57185520	0.10714189	1.11035904	0.30838891	-0.42061507	1.08854677	0.18348024	-4.85786387	-0.15426346	-0.29678563	-0.12156661	0.20108788
870	8.69000000	-0.40146716	-0.03745911	-0.29366910	-0.46370045	-0.30187997	-0.18143634	-0.82899486	0.31126131	-2.68206573	-0.20736080	1.11328242	1.51993401	0.10084791	0.17138673	1.24504457	0.48219965	-0.32800226	0.91349670	0.00916211	-5.40768817	-0.22839364	-0.00238704	-0.14648755	0.20501943
871	8.70000000	-0.41198379	-0.09446878	-0.34752734	-0.39953839	-0.21286292	-0.17472632	-1.11772493	0.44111987	-2.75800704	-0.45276666	1.23195056	1.72678496	-0.71403790	-0.10174282	1.05408704	0.29466227	-0.18160440	0.75637087	0.33534717	-5.72345115	-0.34986556	-0.07968936	-0.12280501	0.16568789
872	8.71000000	-0.41514451	-0.14610567	-0.39768616	-0.34448623	-0.09530229	-0.17469632	-1.00457172	0.47608230	-2.84922504	-0.65080502	1.26872325	1.84619723	-0.73323304	-0.12451106	0.72060983	0.01157962	-0.01215692	0.68880605	0.64663064	-5.82370849	-0.62606329	-0.09718218	-0.10021783	0.12698723
873	8.72000000	-0.41290140	-0.19658171	-0.41867010	-0.33060056	0.01674374	-0.16276541	-0.60580522	0.38726067	-2.84209529	-0.81338123	1.19311622	1.92362648	-0.86085734	0.08904766	0.48622789	-0.26286013	-0.04852038	0.69022909	-0.01366664	-5.65046204	-1.01488001	-0.11939105	-0.04026053	0.14724081
874	8.73000000	-0.42529008	-0.23292087	-0.40863148	-0.36206787	0.12092478	-0.12035572	-0.34439898	0.22018281	-2.64517434	-0.91323461	1.00597168	1.94406781	-0.33190258	-0.01435117	0.56147096	-0.42722677	-0.27320109	0.74280361	-1.00374815	-4.99878934	-1.35671576	-0.12181478	0.01149540	0.17827912
875	8.74000000	-0.42430405	-0.25374737	-0.38819510	-0.41254573	0.22892505	-0.06838062	-0.10685042	0.11343909	-2.35861785	-0.95928913	0.80465807	1.89149838	0.06696212	0.02685864	0.91351146	-0.46269095	-0.37300172	0.70709283	-3.07605215	-3.81608031	-1.86452043	-0.11861916	0.04257342	0.21888678
876	8.75000000	-0.41078274	-0.24200420	-0.36399301	-0.44469940	0.33236875	-0.03078081	0.55410383	0.01853259	-2.12344954	-1.07466429	0.70483727	1.81620583	0.22188565	0.13439802	0.98983133	-0.41040585	-0.26189497	0.62651624	-4.29774052	-2.08576780	-2.76051745	-0.15880588	-0.00031524	0.24539283
877	8.76000000	-0.40170116	-0.20398628	-0.34192457	-0.44231794	0.42809109	-0.00679310	1.34988718	-0.16889405	-1.93032470	-1.21095173	0.72385061	1.75799422	0.40724476	0.16203139	0.78646346	-0.27185006	-0.09000822	0.50977915	-2.36230718	0.36743225	-4.19269409	-0.13933406	-0.07170758	0.23390294
878	8.77000000	-0.38193052	-0.18711646	-0.31389733	-0.44529431	0.46022935	0.01028479	1.24193736	-0.42780580	-1.48603780	-1.21801351	0.73736185	1.68814703	0.24444323	0.26454627	0.72367020	-0.02742100	-0.03328342	0.46148748	-2.46476317	1.58894999	-4.95958330	-0.05951031	-0.16155189	0.19926988
